<mxfile host="app.diagrams.net" modified="2022-05-29T11:54:46.955Z" agent="5.0 (Windows NT 10.0; Win64; x64) AppleWebKit/537.36 (KHTML, like Gecko) Chrome/100.0.4896.75 Safari/537.36" etag="LqPamY3RTiUGMvLaULRY" version="18.1.3" type="github">
  <diagram id="kNW4QMkxms5KEXTcjWJe" name="Page-1">
    <mxGraphModel dx="593" dy="779" grid="1" gridSize="10" guides="1" tooltips="1" connect="1" arrows="1" fold="1" page="1" pageScale="1" pageWidth="827" pageHeight="1169" math="0" shadow="0">
      <root>
        <mxCell id="0" />
        <mxCell id="1" parent="0" />
        <mxCell id="RqZC9e8fMgYT_aQemJxn-1" value="开始" style="rounded=1;whiteSpace=wrap;html=1;" vertex="1" parent="1">
          <mxGeometry x="369" y="220" width="90" height="30" as="geometry" />
        </mxCell>
        <mxCell id="RqZC9e8fMgYT_aQemJxn-2" value="" style="endArrow=classic;html=1;rounded=0;" edge="1" parent="1" source="RqZC9e8fMgYT_aQemJxn-1" target="RqZC9e8fMgYT_aQemJxn-3">
          <mxGeometry width="50" height="50" relative="1" as="geometry">
            <mxPoint x="390" y="620" as="sourcePoint" />
            <mxPoint x="414" y="290" as="targetPoint" />
          </mxGeometry>
        </mxCell>
        <mxCell id="RqZC9e8fMgYT_aQemJxn-3" value="遍历参数获取文档内容" style="rounded=0;whiteSpace=wrap;html=1;" vertex="1" parent="1">
          <mxGeometry x="370" y="280" width="90" height="30" as="geometry" />
        </mxCell>
        <mxCell id="RqZC9e8fMgYT_aQemJxn-5" value="" style="endArrow=classic;html=1;rounded=0;" edge="1" parent="1" source="RqZC9e8fMgYT_aQemJxn-3">
          <mxGeometry width="50" height="50" relative="1" as="geometry">
            <mxPoint x="390" y="620" as="sourcePoint" />
            <mxPoint x="414.3100775193799" y="350.19379844961236" as="targetPoint" />
          </mxGeometry>
        </mxCell>
        <mxCell id="RqZC9e8fMgYT_aQemJxn-6" value="选择各个需要提取的对象" style="rounded=0;whiteSpace=wrap;html=1;" vertex="1" parent="1">
          <mxGeometry x="370" y="350" width="90" height="30" as="geometry" />
        </mxCell>
        <mxCell id="RqZC9e8fMgYT_aQemJxn-8" value="" style="endArrow=classic;html=1;rounded=0;" edge="1" parent="1">
          <mxGeometry width="50" height="50" relative="1" as="geometry">
            <mxPoint x="414.8125" y="370" as="sourcePoint" />
            <mxPoint x="414.3100775193799" y="410.19379844961236" as="targetPoint" />
          </mxGeometry>
        </mxCell>
        <mxCell id="RqZC9e8fMgYT_aQemJxn-9" value="将文档内容转化为数据列表" style="rounded=0;whiteSpace=wrap;html=1;" vertex="1" parent="1">
          <mxGeometry x="370" y="410" width="90" height="30" as="geometry" />
        </mxCell>
        <mxCell id="RqZC9e8fMgYT_aQemJxn-13" value="" style="endArrow=classic;html=1;rounded=0;" edge="1" parent="1">
          <mxGeometry width="50" height="50" relative="1" as="geometry">
            <mxPoint x="413.8125" y="430" as="sourcePoint" />
            <mxPoint x="413.3100775193799" y="470.19379844961236" as="targetPoint" />
          </mxGeometry>
        </mxCell>
        <mxCell id="RqZC9e8fMgYT_aQemJxn-14" value="根据关键词提取所需信息" style="rounded=0;whiteSpace=wrap;html=1;" vertex="1" parent="1">
          <mxGeometry x="369" y="470" width="90" height="30" as="geometry" />
        </mxCell>
        <mxCell id="RqZC9e8fMgYT_aQemJxn-16" value="" style="endArrow=classic;html=1;rounded=0;entryX=0.5;entryY=0;entryDx=0;entryDy=0;" edge="1" parent="1" source="RqZC9e8fMgYT_aQemJxn-14" target="RqZC9e8fMgYT_aQemJxn-17">
          <mxGeometry width="50" height="50" relative="1" as="geometry">
            <mxPoint x="384" y="640" as="sourcePoint" />
            <mxPoint x="424.3100775193799" y="530.1937984496124" as="targetPoint" />
          </mxGeometry>
        </mxCell>
        <mxCell id="RqZC9e8fMgYT_aQemJxn-17" value="将获取到的信息整合转化为json格式" style="rounded=0;whiteSpace=wrap;html=1;" vertex="1" parent="1">
          <mxGeometry x="364" y="530" width="100" height="30" as="geometry" />
        </mxCell>
        <mxCell id="RqZC9e8fMgYT_aQemJxn-19" value="输出解析结果" style="rounded=0;whiteSpace=wrap;html=1;" vertex="1" parent="1">
          <mxGeometry x="364" y="590" width="100" height="30" as="geometry" />
        </mxCell>
        <mxCell id="RqZC9e8fMgYT_aQemJxn-20" value="" style="endArrow=classic;html=1;rounded=0;" edge="1" parent="1" source="RqZC9e8fMgYT_aQemJxn-17" target="RqZC9e8fMgYT_aQemJxn-19">
          <mxGeometry width="50" height="50" relative="1" as="geometry">
            <mxPoint x="420" y="730" as="sourcePoint" />
            <mxPoint x="470" y="680" as="targetPoint" />
          </mxGeometry>
        </mxCell>
        <mxCell id="RqZC9e8fMgYT_aQemJxn-21" value="结束" style="rounded=1;whiteSpace=wrap;html=1;" vertex="1" parent="1">
          <mxGeometry x="370" y="640" width="90" height="30" as="geometry" />
        </mxCell>
        <mxCell id="RqZC9e8fMgYT_aQemJxn-22" value="" style="endArrow=classic;html=1;rounded=0;" edge="1" parent="1" source="RqZC9e8fMgYT_aQemJxn-19" target="RqZC9e8fMgYT_aQemJxn-21">
          <mxGeometry width="50" height="50" relative="1" as="geometry">
            <mxPoint x="390" y="600" as="sourcePoint" />
            <mxPoint x="440" y="550" as="targetPoint" />
          </mxGeometry>
        </mxCell>
      </root>
    </mxGraphModel>
  </diagram>
</mxfile>
